<?xml version="1.0" encoding="UTF-8"?>
<svg viewBox="0 0 263.75137 297.85715" xmlns="http://www.w3.org/2000/svg">
 <g transform="translate(-240.36 -394.15)">
  <path d="m274.84 692.01 186.44-1.5158c-4.4525-24.253-0.86995-48.506 1.5158-72.759 9.9215-10.823 23.304-16.455 41.306-15.158-42.085-14.262-25.011-61.39-37.516-92.086l-54.19 53.053c-4.9391-15.746-1.8139-36.101 0-55.706-0.10999-10.987 10.888-7.692 17.053-10.611-10.35-3.385-17.059-9.5008-19.327-18.948-1.7815 9.2517-5.5755 17.641-14.4 23.874 0.4082-11.553-4.0301-22.414 2.6527-34.864l8.7159-2.6527c-24.665-19.949-23.085-46.897-34.106-70.485-4.2829 24.082 0.57236 48.818-16.295 72.001l9.8528 4.9264c2.8299 11.365 8.3889 20.966 4.1685 30.316-11.871-3.867-17.506-11.475-24.632-18.19-0.45519 7.7469 2.0992 16.202-14.779 20.085 9.3445 1.8972 18.003 4.3432 22.358 10.232 7.4061 21.924 3.3933 42.706 1.1369 63.664-28.665-19.305-48.868-45.77-64.422-76.17-11.803 39.984-7.8996 84.197-43.201 117.85 10.737-6.1467 21.474-7.8744 32.211-4.9264 6.9546 8.5754 11.656 21.656 16.674 34.106-9.5173-4.8301-8.1217 6.3452-31.074-18.19-2.7574 10.582-10.759 19.734-24.632 27.285 12.393-1.1446 23.219-1.4342 24.632 3.4106l9.8528 31.453z"/>
  <path d="m315.45 691.69-4.2443-62.167h31.265l-4.2443 61.955" fill="#ffd300"/>
  <path d="m365.56 612.64h25.188v47.429h-27.6l2.4116-47.429z" fill="#ffd300"/>
  <path d="m406.29 618.27h29.208l-2.4116 46.089h-25.724l-1.0718-46.089z" fill="#ffd300"/>
  <path d="m300.28 607.14 21.252-2.8119-3.1945-28.229s-5.9404-11.593-11.215-11.22c-6.3635 0.45015-11.49 15.305-11.49 15.305l4.6478 26.955z" fill="#ffd300"/>
  <path d="m439.43 563.43s2.6317-9.2907 6.3885-9.2847c4.815 7e-3 8.1503 11.926 8.1503 11.926l-2.0369 26.462-16.785-1.8048 4.2829-27.298z" fill="#ffd300"/>
  <path d="m370.11 516.44h9.6466l-2.6796 38.586h-10.182l3.2155-38.586z" fill="#ffd300"/>
  <path d="m388.33 519.66 0.53592 34.299 10.718-0.53593-1.6078-39.122-9.6466 5.3592z" fill="#ffd300"/>
  <path d="m375.47 447.85-1.6078 19.293h17.149l-5.3592-19.293h-10.182z" fill="#ffd300"/>
 </g>
</svg>